<svg width="16" height="16" viewBox="0 0 16 16" fill="none" xmlns="http://www.w3.org/2000/svg">
<path d="M9.86116 11.9316L13.2987 8.48706C13.4276 8.35787 13.5 8.18267 13.5 8C13.5 7.81733 13.4276 7.64213 13.2987 7.51294L9.86116 4.06839C9.73149 3.94289 9.55783 3.87346 9.37757 3.87503C9.1973 3.8766 9.02487 3.94905 8.8974 4.07678C8.76993 4.20451 8.69762 4.37729 8.69606 4.55792C8.69449 4.73855 8.76379 4.91258 8.88902 5.04251L11.153 7.31109H3.18751C3.00517 7.31109 2.8303 7.38367 2.70137 7.51287C2.57243 7.64206 2.5 7.81729 2.5 8C2.5 8.18271 2.57243 8.35794 2.70137 8.48713C2.8303 8.61633 3.00517 8.68891 3.18751 8.68891H11.153L8.88902 10.9575C8.76379 11.0874 8.69449 11.2614 8.69606 11.4421C8.69762 11.6227 8.76993 11.7955 8.8974 11.9232C9.02487 12.051 9.1973 12.1234 9.37757 12.125C9.55783 12.1265 9.73149 12.0571 9.86116 11.9316Z" fill="black" fill-opacity="0.9"/>
</svg>
