<svg width="16" height="16" viewBox="0 0 16 16" fill="none" xmlns="http://www.w3.org/2000/svg">
<path fill-rule="evenodd" clip-rule="evenodd" d="M7.99998 7.7501C8.35896 7.7501 8.64998 8.04111 8.64998 8.4001V14.0001C8.64998 14.3591 8.35896 14.6501 7.99998 14.6501C7.64099 14.6501 7.34998 14.3591 7.34998 14.0001V8.4001C7.34998 8.04111 7.64099 7.7501 7.99998 7.7501Z" fill="black"/>
<path fill-rule="evenodd" clip-rule="evenodd" d="M12.5 7.75C12.859 7.75 13.15 8.04102 13.15 8.4V14C13.15 14.359 12.859 14.65 12.5 14.65C12.141 14.65 11.85 14.359 11.85 14V8.4C11.85 8.04102 12.141 7.75 12.5 7.75Z" fill="black"/>
<path fill-rule="evenodd" clip-rule="evenodd" d="M3.49998 7.75C3.85896 7.75 4.14998 8.04102 4.14998 8.4V14C4.14998 14.359 3.85896 14.65 3.49998 14.65C3.14099 14.65 2.84998 14.359 2.84998 14V8.4C2.84998 8.04102 3.14099 7.75 3.49998 7.75Z" fill="black"/>
<path fill-rule="evenodd" clip-rule="evenodd" d="M1.34998 14.0001C1.34998 13.6411 1.64099 13.3501 1.99998 13.3501H14C14.359 13.3501 14.65 13.6411 14.65 14.0001C14.65 14.3591 14.359 14.6501 14 14.6501H1.99998C1.64099 14.6501 1.34998 14.3591 1.34998 14.0001Z" fill="black"/>
<path fill-rule="evenodd" clip-rule="evenodd" d="M7.79443 1.38345C7.92785 1.33898 8.0721 1.33898 8.20552 1.38345L14.2055 3.38345C14.4709 3.47193 14.65 3.72032 14.65 4.0001V6.0001C14.65 6.35908 14.359 6.6501 14 6.6501H1.99998C1.64099 6.6501 1.34998 6.35908 1.34998 6.0001V4.0001C1.34998 3.72032 1.52901 3.47193 1.79443 3.38345L7.79443 1.38345ZM2.64998 4.46859V5.3501H13.35V4.46859L7.99998 2.68526L2.64998 4.46859Z" fill="black"/>
</svg>
