<svg width="16" height="16" viewBox="0 0 16 16" fill="none" xmlns="http://www.w3.org/2000/svg">
<path d="M14.4167 15C14.7375 15 15 14.7375 15 14.4167C15 14.0958 14.7375 13.8333 14.4167 13.8333H3.91667C2.95417 13.8333 2.16667 13.0458 2.16667 12.0833V1.58333C2.16667 1.2625 1.90417 1 1.58333 1C1.2625 1 1 1.2625 1 1.58333V12.0833C1 13.6933 2.30667 15 3.91667 15H14.4167Z" fill="black" fill-opacity="0.9"/>
<path d="M6.08481 6.74648C5.71807 6.74648 5.35132 6.609 5.07627 6.32986L4.1219 5.37996C3.95937 5.21748 3.95937 4.955 4.1219 4.79252C4.28443 4.63004 4.54699 4.63004 4.70952 4.79252L5.65972 5.74242C5.8931 5.97573 6.26818 5.97573 6.50156 5.74242L7.9852 4.25924C8.54365 3.70097 9.44801 3.70097 10.0065 4.25924L10.6566 4.90918C10.8816 5.13415 11.2734 5.13415 11.4984 4.90918L13.2905 3.12186C13.453 2.95938 13.7156 2.95938 13.8781 3.12186C14.0406 3.28435 14.0406 3.54682 13.8781 3.7093L12.0944 5.49245C11.5568 6.02989 10.6149 6.02989 10.0731 5.49245L9.423 4.84252C9.18962 4.60921 8.81454 4.60921 8.58116 4.84252L7.09752 6.3257C6.8183 6.60483 6.45155 6.74232 6.08898 6.74232L6.08481 6.74648ZM7.33507 12.5834V8.83377C7.33507 8.60462 7.14753 8.41714 6.91832 8.41714C6.6891 8.41714 6.50156 8.60462 6.50156 8.83377V12.5834C6.50156 12.8125 6.6891 13 6.91832 13C7.14753 13 7.33507 12.8125 7.33507 12.5834ZM5.2513 12.5834V8.00052C5.2513 7.77138 5.06376 7.5839 4.83455 7.5839C4.60533 7.5839 4.4178 7.77138 4.4178 8.00052V12.5834C4.4178 12.8125 4.60533 13 4.83455 13C5.06376 13 5.2513 12.8125 5.2513 12.5834ZM9.41884 12.5834V6.75065C9.41884 6.52151 9.2313 6.33403 9.00208 6.33403C8.77287 6.33403 8.58533 6.52151 8.58533 6.75065V12.5834C8.58533 12.8125 8.77287 13 9.00208 13C9.2313 13 9.41884 12.8125 9.41884 12.5834ZM11.5026 12.5834V8.00052C11.5026 7.77138 11.3151 7.5839 11.0859 7.5839C10.8566 7.5839 10.6691 7.77138 10.6691 8.00052V12.5834C10.6691 12.8125 10.8566 13 11.0859 13C11.3151 13 11.5026 12.8125 11.5026 12.5834ZM13.5864 12.5834V6.33403C13.5864 6.10489 13.3988 5.9174 13.1696 5.9174C12.9404 5.9174 12.7529 6.10489 12.7529 6.33403V12.5834C12.7529 12.8125 12.9404 13 13.1696 13C13.3988 13 13.5864 12.8125 13.5864 12.5834Z" fill="black" fill-opacity="0.9"/>
</svg>
