<svg width="16" height="16" viewBox="0 0 16 16" fill="none" xmlns="http://www.w3.org/2000/svg">
<path fill-rule="evenodd" clip-rule="evenodd" d="M10.1774 3.11326C9.12362 2.64371 7.94626 2.52739 6.82094 2.78164C5.69562 3.03589 4.68263 3.64709 3.93306 4.52409C3.18348 5.40109 2.73748 6.4969 2.66157 7.64809C2.58566 8.79927 2.88391 9.94416 3.51184 10.912C4.13977 11.8798 5.06373 12.6187 6.14592 13.0186C7.22811 13.4184 8.41055 13.4577 9.51689 13.1305C10.6232 12.8034 11.5942 12.1275 12.285 11.2034C12.9757 10.2794 13.3493 9.15684 13.35 8.00316V7.45153C13.35 7.09255 13.641 6.80153 14 6.80153C14.359 6.80153 14.65 7.09255 14.65 7.45153V8.00353C14.6492 9.43755 14.1848 10.8333 13.3262 11.9818C12.4676 13.1304 11.2607 13.9706 9.88549 14.3772C8.51032 14.7838 7.04055 14.735 5.6954 14.238C4.35024 13.741 3.20177 12.8226 2.42126 11.6196C1.64076 10.4165 1.27004 8.99346 1.36439 7.56255C1.45874 6.13164 2.01312 4.76956 2.94483 3.67946C3.87654 2.58935 5.13568 1.82963 6.53444 1.5136C7.9332 1.19757 9.39665 1.34216 10.7065 1.9258C11.0344 2.07191 11.1818 2.45618 11.0357 2.78408C10.8896 3.11199 10.5053 3.25937 10.1774 3.11326ZM14.4594 2.74368C14.7133 2.9974 14.7135 3.40895 14.4598 3.66292L8.45983 9.66892C8.33795 9.79092 8.17259 9.85949 8.00014 9.85953C7.82769 9.85957 7.6623 9.79109 7.54036 9.66915L5.74036 7.86915C5.48652 7.61531 5.48652 7.20375 5.74036 6.94991C5.9942 6.69607 6.40576 6.69607 6.6596 6.94991L7.99975 8.29006L13.5401 2.74414C13.7938 2.49018 14.2054 2.48997 14.4594 2.74368Z" fill="black" fill-opacity="0.9"/>
</svg>
