<svg width="24" height="24" viewBox="0 0 24 24" fill="none" xmlns="http://www.w3.org/2000/svg">
<path d="M12 21.9998C10.6167 21.9998 9.31667 21.7373 8.1 21.2123C6.88333 20.6873 5.825 19.9748 4.925 19.0748C4.025 18.1748 3.3125 17.1165 2.7875 15.8998C2.2625 14.6831 2 13.3831 2 11.9998C2 9.41647 2.85833 7.1748 4.575 5.2748C6.29167 3.3748 8.43333 2.2998 11 2.0498V5.0498C9.26667 5.28314 7.83333 6.05814 6.7 7.3748C5.56667 8.69147 5 10.2331 5 11.9998C5 13.9498 5.67917 15.604 7.0375 16.9623C8.39583 18.3206 10.05 18.9998 12 18.9998C13.0667 18.9998 14.0792 18.7748 15.0375 18.3248C15.9958 17.8748 16.8167 17.2331 17.5 16.3998L20.1 17.8998C19.15 19.1998 17.9667 20.2081 16.55 20.9248C15.1333 21.6415 13.6167 21.9998 12 21.9998ZM21.15 16.0498L18.55 14.5498C18.7 14.1331 18.8125 13.7123 18.8875 13.2873C18.9625 12.8623 19 12.4331 19 11.9998C19 10.2331 18.4333 8.69147 17.3 7.3748C16.1667 6.05814 14.7333 5.28314 13 5.0498V2.0498C15.5667 2.2998 17.7083 3.3748 19.425 5.2748C21.1417 7.1748 22 9.41647 22 11.9998C22 12.6998 21.9375 13.3915 21.8125 14.0748C21.6875 14.7581 21.4667 15.4165 21.15 16.0498Z" fill="white"/>
</svg>
