<svg width="16" height="16" viewBox="0 0 16 16" fill="none" xmlns="http://www.w3.org/2000/svg">
<path fill-rule="evenodd" clip-rule="evenodd" d="M1.54036 1.54048C1.7942 1.28664 2.20575 1.28664 2.4596 1.54048L11.4506 10.5315C11.4563 10.537 11.462 10.5426 11.4675 10.5484L14.4596 13.5405C14.7134 13.7943 14.7134 14.2059 14.4596 14.4597C14.2058 14.7136 13.7942 14.7136 13.5404 14.4597L10.9121 11.8315C10.0351 12.3554 9.12998 12.6332 8.00972 12.65L7.99998 12.6502C5.85271 12.6502 4.19826 11.5253 3.11373 10.4649C2.56739 9.93065 2.15017 9.3983 1.86918 8.99947C1.7283 8.79952 1.62064 8.63167 1.54717 8.51194C1.51041 8.45204 1.48214 8.40406 1.46248 8.36999C1.45264 8.35296 1.44495 8.33939 1.43943 8.32954L1.43276 8.31757L1.43065 8.31374L1.42989 8.31236C1.42989 8.31236 1.42934 8.31136 1.99998 8.0001L1.42934 8.31136C1.32017 8.11121 1.32384 7.86849 1.43902 7.67173C2.07161 6.59108 2.91503 5.63254 3.92265 4.84201L1.54036 2.45972C1.28652 2.20588 1.28652 1.79432 1.54036 1.54048ZM4.84951 5.76887C4.01647 6.39988 3.31113 7.15565 2.76259 8.00141C2.81038 8.07458 2.86688 8.15843 2.93191 8.25073C3.17932 8.6019 3.5462 9.06955 4.02258 9.53535C4.98257 10.474 6.32644 11.3484 7.9951 11.3501C8.74305 11.3383 9.35516 11.1853 9.95675 10.8761L9.02087 9.94023C8.97519 9.96399 8.92546 9.98713 8.87092 10.0094C8.59443 10.1223 8.29787 10.1824 7.99854 10.1872C7.6992 10.192 7.4008 10.1416 7.12062 10.0379C6.84039 9.93415 6.58222 9.77841 6.36285 9.57733C6.14336 9.37613 5.96686 9.13323 5.84707 8.8614C5.7272 8.58935 5.66745 8.29569 5.67317 7.99855C5.67889 7.70143 5.74989 7.41025 5.87986 7.14287C5.91674 7.06699 5.95809 6.99359 6.00359 6.92295L4.84951 5.76887ZM6.98508 7.90444C6.97773 7.944 6.97369 7.98381 6.97293 8.02357C6.97089 8.12924 6.99198 8.23569 7.03671 8.3372C7.08152 8.43892 7.15001 8.53535 7.24129 8.61903C7.3327 8.70282 7.44472 8.77166 7.572 8.81879C7.69648 8.86488 7.83125 8.88856 7.96812 8.88748L6.98508 7.90444ZM7.99858 4.65011C7.65908 4.64938 7.32087 4.68484 6.99089 4.75564C6.63989 4.83096 6.2943 4.60747 6.21899 4.25647C6.14367 3.90548 6.36716 3.55989 6.71816 3.48458C7.13885 3.39431 7.5692 3.34923 8.00068 3.35011C10.1476 3.35035 11.8018 4.47504 12.8862 5.53535C13.4326 6.06955 13.8498 6.60191 14.1308 7.00073C14.2716 7.20069 14.3793 7.36854 14.4528 7.48827C14.4895 7.54817 14.5178 7.59615 14.5375 7.63021C14.5473 7.64725 14.555 7.66082 14.5605 7.67067L14.5672 7.68263L14.5693 7.68647L14.5701 7.68784C14.5701 7.68784 14.5706 7.68885 14 8.0001L14.5706 7.68885C14.6796 7.88866 14.6761 8.13092 14.5615 8.32753C14.2065 8.93626 13.7838 9.50832 13.3006 10.0347C13.0579 10.2991 12.6467 10.3167 12.3822 10.0739C12.1178 9.83118 12.1002 9.42 12.3429 9.15555C12.6761 8.79266 12.9753 8.40592 13.2378 7.99945C13.1899 7.92613 13.1333 7.84205 13.068 7.74948C12.8206 7.39831 12.4538 6.93066 11.9774 6.46486C11.0164 5.52529 9.67089 4.65011 7.99998 4.65011L7.99858 4.65011Z" fill="black" fill-opacity="0.9"/>
</svg>
