<svg width="16" height="16" viewBox="0 0 16 16" fill="none" xmlns="http://www.w3.org/2000/svg">
<path fill-rule="evenodd" clip-rule="evenodd" d="M2.99998 7.3501C3.35896 7.3501 3.64998 7.64111 3.64998 8.0001V13.3501H12.35V8.0001C12.35 7.64111 12.641 7.3501 13 7.3501C13.359 7.3501 13.65 7.64111 13.65 8.0001V14.0001C13.65 14.3591 13.359 14.6501 13 14.6501H2.99998C2.64099 14.6501 2.34998 14.3591 2.34998 14.0001V8.0001C2.34998 7.64111 2.64099 7.3501 2.99998 7.3501Z" fill="black"/>
<path fill-rule="evenodd" clip-rule="evenodd" d="M1.34998 5.0001C1.34998 4.64111 1.64099 4.3501 1.99998 4.3501H14C14.359 4.3501 14.65 4.64111 14.65 5.0001V8.0001C14.65 8.35908 14.359 8.6501 14 8.6501H1.99998C1.64099 8.6501 1.34998 8.35908 1.34998 8.0001V5.0001ZM2.64998 5.6501V7.3501H13.35V5.6501H2.64998Z" fill="black"/>
<path fill-rule="evenodd" clip-rule="evenodd" d="M7.99998 4.3501C8.35896 4.3501 8.64998 4.64111 8.64998 5.0001V14.0001C8.64998 14.3591 8.35896 14.6501 7.99998 14.6501C7.64099 14.6501 7.34998 14.3591 7.34998 14.0001V5.0001C7.34998 4.64111 7.64099 4.3501 7.99998 4.3501Z" fill="black"/>
<path fill-rule="evenodd" clip-rule="evenodd" d="M5.42855 2.6501C5.23257 2.6501 5.03781 2.73155 4.88908 2.88771C4.73933 3.04496 4.64998 3.26471 4.64998 3.5001C4.64998 3.73549 4.73933 3.95524 4.88908 4.11248C5.03781 4.26865 5.23257 4.3501 5.42855 4.3501H7.1323C7.06659 4.17556 6.98586 3.98763 6.88847 3.8017C6.52621 3.11012 6.0508 2.6501 5.42855 2.6501ZM7.99998 5.0001C8.6385 4.87847 8.63846 4.87826 8.63841 4.87804L8.63808 4.87631L8.63745 4.87304L8.6355 4.86326L8.62885 4.83118C8.62316 4.80441 8.61489 4.76707 8.60384 4.72064C8.58176 4.62792 8.54836 4.4982 8.50175 4.34367C8.40926 4.03697 8.26129 3.62085 8.04005 3.19849C7.6166 2.39008 6.80629 1.3501 5.42855 1.3501C4.86676 1.3501 4.33479 1.58472 3.9477 1.99116C3.56164 2.39653 3.34998 2.93984 3.34998 3.5001C3.34998 4.06036 3.56164 4.60367 3.9477 5.00903C4.33479 5.41548 4.86676 5.6501 5.42855 5.6501H7.99998C8.19367 5.6501 8.37727 5.56372 8.50075 5.41449C8.62424 5.26527 8.67465 5.06831 8.63841 4.87804L7.99998 5.0001ZM7.36166 5.1228C7.3617 5.12297 7.3617 5.12298 7.36166 5.1228V5.1228Z" fill="black"/>
<path fill-rule="evenodd" clip-rule="evenodd" d="M7.9599 3.19849C8.38336 2.39008 9.19366 1.3501 10.5714 1.3501C11.1332 1.3501 11.6652 1.58472 12.0522 1.99116C12.4383 2.39653 12.65 2.93984 12.65 3.5001C12.65 4.06036 12.4383 4.60367 12.0522 5.00903C11.6652 5.41548 11.1332 5.6501 10.5714 5.6501H7.99998C7.80628 5.6501 7.62268 5.56372 7.4992 5.41449C7.37571 5.26527 7.32521 5.06875 7.36146 4.87847L7.99998 5.0001C7.36146 4.87847 7.36141 4.8787 7.36146 4.87847L7.36187 4.87631L7.36251 4.87304L7.36445 4.86326L7.3711 4.83118C7.3768 4.80441 7.38506 4.76707 7.39611 4.72064C7.41819 4.62792 7.45159 4.4982 7.4982 4.34367C7.59069 4.03697 7.73866 3.62085 7.9599 3.19849ZM8.86765 4.3501H10.5714C10.7674 4.3501 10.9621 4.26865 11.1109 4.11248C11.2606 3.95524 11.35 3.73549 11.35 3.5001C11.35 3.26471 11.2606 3.04496 11.1109 2.88771C10.9621 2.73155 10.7674 2.6501 10.5714 2.6501C9.94915 2.6501 9.47374 3.11012 9.11148 3.8017C9.01409 3.98763 8.93336 4.17556 8.86765 4.3501Z" fill="black"/>
</svg>
