<svg width="16" height="16" viewBox="0 0 16 16" fill="none" xmlns="http://www.w3.org/2000/svg">
<path d="M15 4.49971V10.3915C15 11.6379 14.5147 12.8098 13.6333 13.6911L12.4959 14.8285C12.3821 14.9423 12.2328 14.9994 12.0835 14.9994C11.9341 14.9994 11.7848 14.9423 11.6711 14.8285C11.443 14.6005 11.443 14.2318 11.6711 14.0037L12.8085 12.8663C13.4694 12.2055 13.8334 11.3265 13.8334 10.3915V4.49971C13.8334 4.17832 13.5715 3.91642 13.2501 3.91642C12.9287 3.91642 12.6668 4.17832 12.6668 4.49971C12.6668 4.49971 12.6598 9.19107 12.6592 9.20507C12.6504 9.5912 12.5198 9.975 12.2579 10.2876L10.7541 11.8532C10.6398 11.9728 10.4869 12.0322 10.3335 12.0322C10.1877 12.0322 10.0425 11.978 9.9293 11.8695C9.69714 11.6461 9.68956 11.2769 9.91296 11.0447L11.3905 9.50837C11.4663 9.4168 11.5019 9.29373 11.5001 9.16715C11.5001 9.16715 11.5001 9.16657 11.5001 9.16599V9.14032C11.4926 9.01142 11.4447 8.88018 11.352 8.77635C11.1379 8.53779 10.7698 8.51737 10.5319 8.73144L8.68685 10.4294C8.996 11.0132 9.16749 11.6683 9.16749 12.3402V14.4161C9.16749 14.7381 8.90617 14.9994 8.58418 14.9994C8.2622 14.9994 8.00088 14.7381 8.00088 14.4161V12.3402C8.00088 11.5265 7.65789 10.7449 7.05883 10.1937L5.46406 8.72619C5.23191 8.51796 4.86326 8.53721 4.64918 8.77635C4.45786 8.99042 4.45261 9.31764 4.63693 9.53754L6.13604 11.0955C6.35944 11.3276 6.35244 11.6969 6.1197 11.9203C5.88871 12.1437 5.51831 12.1372 5.2949 11.9039L3.76897 10.3168C3.50065 9.99775 3.36473 9.61687 3.34724 9.2354C3.34432 9.21207 3.33324 4.50029 3.33324 4.50029C3.33324 4.1789 3.07133 3.91701 2.74993 3.91701C2.42852 3.91701 2.16662 4.1789 2.16662 4.50029V10.3921C2.16662 11.3271 2.5306 12.2055 3.19149 12.8669L4.32894 14.0043C4.55702 14.2324 4.55702 14.601 4.32894 14.8291C4.2152 14.9428 4.06587 15 3.91655 15C3.76722 15 3.61789 14.9428 3.50415 14.8291L2.36669 13.6917C1.48531 12.8103 1 11.6385 1 10.3921V4.49971C1 3.53496 1.78513 2.74985 2.74993 2.74985C3.71472 2.74985 4.49985 3.53496 4.49985 4.49971V7.52462C5.08258 7.31931 5.75514 7.42197 6.24745 7.86235L7.84805 9.33514C7.8988 9.3818 7.94371 9.43313 7.99213 9.48213L9.74672 7.86759C10.2431 7.42313 10.9168 7.31989 11.4996 7.52521V4.50029C11.4996 3.53554 12.2847 2.75044 13.2495 2.75044C14.2143 2.75044 14.9994 3.53554 14.9994 4.50029L15 4.49971ZM5.08375 2.86651C5.08375 1.83701 5.86888 1 6.83367 1C7.28982 1 7.69522 1.15749 8.00029 1.42405C8.30536 1.15749 8.71076 1 9.16691 1C10.1317 1 10.9168 1.8376 10.9168 2.86651C10.9168 4.03541 9.72572 5.23698 8.7271 6.03841C8.51652 6.20757 8.2587 6.29214 8.00029 6.29214C7.74189 6.29214 7.48406 6.20757 7.27291 6.03783C6.27428 5.2364 5.08375 4.03483 5.08375 2.86593V2.86651ZM6.25037 2.86651C6.25037 3.3938 6.92234 4.26114 8.00379 5.12907C9.07825 4.26114 9.75022 3.3938 9.75022 2.86651C9.75022 2.48038 9.48831 2.16657 9.16691 2.16657C8.89801 2.16657 8.5836 2.31939 8.5836 2.74985C8.5836 3.07183 8.32228 3.33314 8.00029 3.33314C7.67831 3.33314 7.41698 3.07183 7.41698 2.74985C7.41698 2.31939 7.10258 2.16657 6.83367 2.16657C6.51227 2.16657 6.25037 2.48096 6.25037 2.86651Z" fill="black" fill-opacity="0.9"/>
</svg>
