<svg width="16" height="16" viewBox="0 0 16 16" fill="none" xmlns="http://www.w3.org/2000/svg">
<g clip-path="url(#clip0_54930_39175)">
<path fill-rule="evenodd" clip-rule="evenodd" d="M8.00002 1.98311C4.6771 1.98311 1.98335 4.67686 1.98335 7.99977C1.98335 11.3227 4.6771 14.0164 8.00002 14.0164C11.3229 14.0164 14.0167 11.3227 14.0167 7.99977C14.0167 4.67686 11.3229 1.98311 8.00002 1.98311ZM0.68335 7.99977C0.68335 3.95889 3.95913 0.683105 8.00002 0.683105C12.0409 0.683105 15.3167 3.95889 15.3167 7.99977C15.3167 12.0407 12.0409 15.3164 8.00002 15.3164C3.95913 15.3164 0.68335 12.0407 0.68335 7.99977Z" fill="black" fill-opacity="0.9"/>
<path fill-rule="evenodd" clip-rule="evenodd" d="M8.17491 5.33289C7.86069 5.27899 7.53752 5.33804 7.26266 5.49958C6.9878 5.66112 6.77898 5.91472 6.67318 6.21547C6.55406 6.55411 6.18296 6.73207 5.84432 6.61294C5.50567 6.49381 5.32772 6.12272 5.44685 5.78407C5.65452 5.19371 6.06443 4.6959 6.60398 4.37881C7.14352 4.06171 7.77787 3.9458 8.39469 4.0516C9.0115 4.1574 9.57097 4.47809 9.974 4.95686C10.3769 5.43545 10.5975 6.04114 10.5967 6.66672C10.5965 7.67829 9.84645 8.3478 9.30724 8.70727C9.01783 8.90021 8.73304 9.04214 8.52317 9.13542C8.41731 9.18246 8.32819 9.21816 8.26402 9.24261C8.23187 9.25485 8.20583 9.26433 8.1869 9.27106L8.16391 9.27912L8.15661 9.28161L8.15405 9.28247L8.15305 9.28281C8.15305 9.28281 8.15223 9.28308 7.9515 8.68088L8.15305 9.28281C7.81248 9.39633 7.44356 9.21255 7.33004 8.87199C7.2166 8.53167 7.4003 8.16386 7.74038 8.05005L7.75139 8.04619C7.76175 8.0425 7.77868 8.03636 7.80122 8.02777C7.84642 8.01055 7.91355 7.98375 7.99519 7.94746C8.16032 7.87407 8.37554 7.766 8.58613 7.62561C9.04687 7.31845 9.29668 6.98804 9.29668 6.66644C9.29716 6.34762 9.18479 6.03796 8.97947 5.79406C8.77415 5.55016 8.48914 5.38679 8.17491 5.33289Z" fill="black" fill-opacity="0.9"/>
<path fill-rule="evenodd" clip-rule="evenodd" d="M7.35002 11.3331C7.35002 10.9741 7.64103 10.6831 8.00002 10.6831H8.00668C8.36567 10.6831 8.65668 10.9741 8.65668 11.3331C8.65668 11.6921 8.36567 11.9831 8.00668 11.9831H8.00002C7.64103 11.9831 7.35002 11.6921 7.35002 11.3331Z" fill="black" fill-opacity="0.9"/>
</g>
<defs>
<clipPath id="clip0_54930_39175">
<rect width="16" height="16" fill="white"/>
</clipPath>
</defs>
</svg>
