<svg width="24" height="24" viewBox="0 0 24 24" fill="none" xmlns="http://www.w3.org/2000/svg">
<path fill-rule="evenodd" clip-rule="evenodd" d="M1.0498 22C1.0498 22.5523 1.49752 23 2.0498 23H11.8045C12.3568 23 12.8045 22.5523 12.8045 22C12.8045 21.4477 12.3568 21 11.8045 21H3.0498V3.23047H15.0966V13.1934C15.0966 13.7457 15.5443 14.1934 16.0966 14.1934C16.6489 14.1934 17.0966 13.7457 17.0966 13.1934V2.23047C17.0966 1.67818 16.6489 1.23047 16.0966 1.23047H2.0498C1.49752 1.23047 1.0498 1.67818 1.0498 2.23047V22Z" fill="white"/>
<path fill-rule="evenodd" clip-rule="evenodd" d="M3.6377 9.03906C3.6377 9.59135 4.08541 10.0391 4.6377 10.0391H13.5074C14.0597 10.0391 14.5074 9.59135 14.5074 9.03906V5.34766C14.5074 4.79537 14.0597 4.34766 13.5074 4.34766H4.6377C4.08541 4.34766 3.6377 4.79537 3.6377 5.34766V9.03906ZM5.6377 8.03906V6.34766H12.5074V8.03906H5.6377Z" fill="white"/>
<path fill-rule="evenodd" clip-rule="evenodd" d="M10.8037 22C10.8037 22.5523 11.2514 23 11.8037 23H20.388C20.9402 23 21.388 22.5523 21.388 22V15.9877C21.388 15.4354 20.9402 14.9877 20.388 14.9877C19.8357 14.9877 19.388 15.4354 19.388 15.9877V21H12.8037V15.9877C12.8037 15.4354 12.356 14.9877 11.8037 14.9877C11.2514 14.9877 10.8037 15.4354 10.8037 15.9877V22Z" fill="white"/>
<path fill-rule="evenodd" clip-rule="evenodd" d="M14.665 23C15.2173 23 15.665 22.5523 15.665 22V20.206H16.5265V22C16.5265 22.5523 16.9742 23 17.5265 23C18.0787 23 18.5265 22.5523 18.5265 22V19.206C18.5265 18.6537 18.0787 18.206 17.5265 18.206H14.665C14.1128 18.206 13.665 18.6537 13.665 19.206V22C13.665 22.5523 14.1128 23 14.665 23Z" fill="white"/>
<path fill-rule="evenodd" clip-rule="evenodd" d="M9.53607 17.4644C9.83738 17.9272 10.4569 18.0582 10.9197 17.7569L16.0969 14.3866L21.2742 17.7569C21.737 18.0582 22.3565 17.9272 22.6578 17.4644C22.9591 17.0015 22.8282 16.3821 22.3653 16.0808L16.6425 12.3553C16.3108 12.1394 15.883 12.1394 15.5514 12.3554L9.82858 16.0808C9.36572 16.3821 9.23476 17.0015 9.53607 17.4644Z" fill="white"/>
</svg>
