<svg width="16" height="16" viewBox="0 0 16 16" fill="none" xmlns="http://www.w3.org/2000/svg">
<path fill-rule="evenodd" clip-rule="evenodd" d="M12.3333 2.64961C12.0636 2.64961 11.805 2.75675 11.6143 2.94745L11.0739 3.48783L12.512 4.92592L13.0524 4.38554C13.2431 4.19484 13.3502 3.93619 13.3502 3.6665C13.3502 3.3968 13.2431 3.13815 13.0524 2.94745C12.8617 2.75675 12.603 2.64961 12.3333 2.64961ZM12.9717 6.30467L13.9716 5.30478C14.4061 4.87028 14.6502 4.28097 14.6502 3.6665C14.6502 3.05202 14.4061 2.46271 13.9716 2.02821C13.5371 1.59371 12.9478 1.34961 12.3333 1.34961C11.7188 1.34961 11.1295 1.59371 10.695 2.02821L1.54036 11.1829C1.41846 11.3048 1.34998 11.4701 1.34998 11.6425V14.0238C1.34998 14.3828 1.64099 14.6738 1.99998 14.6738H4.33331C4.5057 14.6738 4.67103 14.6053 4.79293 14.4834L12.9717 6.30467ZM11.5927 5.84516L10.1546 4.40707L2.64998 11.9117V13.3738H4.06407L11.5927 5.84516Z" fill="black" fill-opacity="0.9"/>
</svg>
