<svg width="16" height="16" viewBox="0 0 16 16" fill="none" xmlns="http://www.w3.org/2000/svg">
<g clip-path="url(#clip0_55566_26198)">
<path fill-rule="evenodd" clip-rule="evenodd" d="M7.52864 0.862254C7.65366 0.73723 7.82323 0.666992 8.00004 0.666992C8.96307 0.666992 9.91667 0.856675 10.8064 1.22521C11.6961 1.59374 12.5045 2.13391 13.1855 2.81488C13.8665 3.49584 14.4066 4.30426 14.7752 5.19398C15.1437 6.0837 15.3334 7.0373 15.3334 8.00033C15.3334 8.36852 15.0349 8.66699 14.6667 8.66699H8.00004C7.63185 8.66699 7.33337 8.36852 7.33337 8.00033V1.33366C7.33337 1.15685 7.40361 0.987279 7.52864 0.862254ZM8.66671 2.03748V7.33366H13.9629C13.9004 6.7746 13.7594 6.22599 13.5433 5.70422C13.2418 4.97627 12.7998 4.31484 12.2427 3.75768C11.6855 3.20053 11.0241 2.75858 10.2961 2.45705C9.77438 2.24093 9.22577 2.09998 8.66671 2.03748ZM5.94434 1.62024C6.0916 1.9577 5.93742 2.35064 5.59996 2.4979C4.70169 2.88989 3.91311 3.49596 3.30318 4.26312C2.69325 5.03028 2.28054 5.93517 2.10112 6.89868C1.92169 7.8622 1.98103 8.85499 2.27394 9.79027C2.56685 10.7256 3.08441 11.5748 3.78137 12.2639C4.47833 12.9529 5.33348 13.4608 6.27204 13.743C7.21061 14.0252 8.20402 14.0732 9.16542 13.8828C10.1268 13.6924 11.0269 13.2693 11.7871 12.6507C12.5472 12.032 13.1443 11.2366 13.526 10.3339C13.6694 9.99479 14.0605 9.83612 14.3996 9.97952C14.7387 10.1229 14.8974 10.5141 14.754 10.8532C14.2875 11.9565 13.5578 12.9287 12.6287 13.6848C11.6997 14.4409 10.5995 14.958 9.42447 15.1907C8.24942 15.4234 7.03525 15.3648 5.88812 15.0198C4.74098 14.6749 3.6958 14.0542 2.84396 13.2121C1.99211 12.3699 1.35954 11.3319 1.00154 10.1888C0.643545 9.04563 0.571023 7.83222 0.790316 6.65459C1.00961 5.47697 1.51404 4.37099 2.25951 3.43335C3.00498 2.49571 3.96879 1.75496 5.06668 1.27586C5.40414 1.1286 5.79708 1.28278 5.94434 1.62024Z" fill="black"/>
</g>
<defs>
<clipPath id="clip0_55566_26198">
<rect width="16" height="16" fill="white"/>
</clipPath>
</defs>
</svg>
