<svg width="16" height="16" viewBox="0 0 16 16" fill="none" xmlns="http://www.w3.org/2000/svg">
<path d="M11.5003 8C11.5003 8.322 11.239 8.58333 10.917 8.58333C10.595 8.58333 10.3337 8.322 10.3337 8C10.3337 7.678 10.595 7.41667 10.917 7.41667C11.239 7.41667 11.5003 7.678 11.5003 8ZM5.08416 3.91667C5.40613 3.91667 5.66744 3.65592 5.66744 3.33333C5.66744 2.68992 6.19065 2.16667 6.83401 2.16667C7.47738 2.16667 8.00058 2.68992 8.00058 3.33333C8.00058 3.65592 8.26189 3.91667 8.58387 3.91667C8.90584 3.91667 9.16715 3.65592 9.16715 3.33333C9.16715 2.0465 8.12074 1 6.83401 1C5.54729 1 4.50087 2.0465 4.50087 3.33333C4.50087 3.65592 4.76219 3.91667 5.08416 3.91667ZM15 8.58333V9.75C15 10.3952 14.5637 10.7878 14.0854 10.8898C13.6999 11.8547 12.9935 12.6696 12.0836 13.1963V13.25C12.0836 14.2148 11.2985 15 10.3337 15C9.57312 15 8.92451 14.5123 8.68361 13.8333H7.31697C7.07608 14.5123 6.42746 15 5.66686 15C4.70211 15 3.91701 14.2148 3.91701 13.25V13.2039C2.38005 12.3178 1.47771 10.6507 1.59378 8.8575C1.63053 8.287 1.7746 7.74508 2.005 7.24983C1.4118 6.96925 1 6.3655 1 5.66667C1 4.70183 1.7851 3.91667 2.74985 3.91667C3.07183 3.91667 3.33314 4.17742 3.33314 4.5C3.33314 4.82258 3.07183 5.08333 2.74985 5.08333C2.42788 5.08333 2.16657 5.34467 2.16657 5.66667C2.16657 5.95308 2.37422 6.19167 2.64661 6.24067C3.53379 5.17725 4.89401 4.5 6.40472 4.5H9.53287C9.96042 3.63783 10.7589 3.03467 11.8234 2.7815C12.1682 2.70042 12.5251 2.77975 12.8039 2.99967C13.0868 3.22367 13.2496 3.5585 13.2496 3.919V6.08608C13.6042 6.48917 13.8877 6.95 14.0848 7.4435C14.5637 7.54558 15 7.93817 15 8.58333ZM13.8334 8.58333H13.6619C13.4041 8.58333 13.1767 8.41358 13.1032 8.16625C12.9433 7.62958 12.6482 7.13025 12.2498 6.72133C12.1431 6.61225 12.0836 6.46583 12.0836 6.31417V3.919C11.5149 4.05433 10.7624 4.40317 10.4714 5.28108C10.3891 5.52783 10.1488 5.69758 9.89393 5.68008C9.85426 5.67833 6.40588 5.66725 6.40588 5.66725C4.47929 5.66725 2.87701 7.10167 2.7586 8.93333C2.66528 10.3736 3.44746 11.7053 4.75169 12.3254C4.95525 12.4222 5.08416 12.6276 5.08416 12.8522V13.2506C5.08416 13.5726 5.34605 13.8339 5.66744 13.8339C5.98883 13.8339 6.25073 13.5726 6.25073 13.2506C6.25073 12.9286 6.51204 12.6672 6.83401 12.6672H9.16715C9.48913 12.6672 9.75044 12.928 9.75044 13.2506C9.75044 13.5732 10.0123 13.8339 10.3337 13.8339C10.6551 13.8339 10.917 13.5726 10.917 13.2506V12.8457C10.917 12.6212 11.0459 12.4164 11.2489 12.3196C12.1483 11.8903 12.8238 11.1057 13.1032 10.1683C13.1767 9.92092 13.4041 9.75117 13.6619 9.75117H13.8334V8.5845V8.58333Z" fill="black" fill-opacity="0.9"/>
</svg>
