<svg width="16" height="16" viewBox="0 0 16 16" fill="none" xmlns="http://www.w3.org/2000/svg">
<path fill-rule="evenodd" clip-rule="evenodd" d="M10.8143 1.62949C11.4429 1.31511 12.1707 1.26333 12.8375 1.48555C13.5044 1.70777 14.0556 2.18579 14.37 2.81445C14.5257 3.12573 14.6185 3.46462 14.6432 3.81178C14.6679 4.15894 14.624 4.50756 14.514 4.83774C14.4039 5.16792 14.2299 5.4732 14.0019 5.73614C13.7739 5.99908 13.4963 6.21454 13.1851 6.3702C12.8738 6.52587 12.5349 6.61871 12.1877 6.6434C11.8406 6.6681 11.4919 6.62418 11.1618 6.51415C10.8316 6.40411 10.5263 6.23012 10.2634 6.00211C10.1664 5.91801 10.0758 5.82716 9.9924 5.73036L6.58884 7.43214C6.62888 7.61529 6.64999 7.80531 6.64999 7.99985C6.64999 8.19439 6.62888 8.3844 6.58884 8.56755L9.99235 10.2693C10.3018 9.91035 10.7046 9.63772 11.1618 9.48533C11.492 9.37526 11.8407 9.33131 12.1879 9.35598C12.5351 9.38066 12.874 9.47347 13.1853 9.62914C13.8141 9.94351 14.2922 10.4948 14.5145 11.1617C14.7368 11.8286 14.6851 12.5565 14.3707 13.1852C14.0563 13.814 13.5051 14.2921 12.8382 14.5144C12.1713 14.7367 11.4434 14.6849 10.8146 14.3706C10.1859 14.0562 9.70777 13.5049 9.48547 12.838C9.33307 12.3808 9.30946 11.895 9.41097 11.4321L6.00754 9.73035C5.76498 10.0117 5.46435 10.2407 5.12348 10.4002C4.58278 10.6531 3.97252 10.7161 3.39157 10.5789C2.81061 10.4417 2.29299 10.1124 1.92256 9.64432C1.55213 9.17623 1.35059 8.59678 1.35059 7.99985C1.35059 7.40292 1.55213 6.82347 1.92256 6.35537C2.29299 5.88728 2.81061 5.55797 3.39157 5.42078C3.97252 5.28359 4.58278 5.34657 5.12348 5.59951C5.46435 5.75897 5.76498 5.98804 6.00754 6.26935L9.41095 4.56765C9.30944 4.10482 9.33302 3.61906 9.48536 3.16196C9.70758 2.49512 10.1856 1.94388 10.8143 1.62949ZM5.20794 7.39587C5.07191 7.12393 4.84805 6.90588 4.57262 6.77704C4.29718 6.64818 3.98629 6.6161 3.69033 6.68598C3.39437 6.75587 3.13068 6.92364 2.94197 7.1621C2.75326 7.40056 2.65059 7.69575 2.65059 7.99985C2.65059 8.30395 2.75326 8.59914 2.94197 8.8376C3.13068 9.07606 3.39437 9.24383 3.69033 9.31371C3.98629 9.3836 4.29718 9.35152 4.57262 9.22266C4.84805 9.09382 5.07191 8.87577 5.20794 8.60383M5.20798 7.39595C5.29867 7.57735 5.34999 7.78204 5.34999 7.99985C5.34999 8.21766 5.29867 8.42235 5.20798 8.60375M12.4265 2.71887C12.0868 2.60565 11.716 2.63203 11.3957 2.7922C11.0754 2.95238 10.8319 3.23322 10.7187 3.57296C10.6055 3.9127 10.6318 4.2835 10.792 4.60378C10.8713 4.76237 10.9811 4.90379 11.1151 5.01996C11.249 5.13612 11.4045 5.22477 11.5728 5.28083C11.741 5.33689 11.9186 5.35927 12.0955 5.34668C12.2723 5.3341 12.445 5.2868 12.6036 5.20749C12.7622 5.12818 12.9036 5.01841 13.0198 4.88445C13.1359 4.75049 13.2246 4.59496 13.2806 4.42674C13.3367 4.25852 13.3591 4.0809 13.3465 3.90403C13.3339 3.72716 13.2866 3.5545 13.2073 3.39591C13.0471 3.07563 12.7663 2.83209 12.4265 2.71887ZM12.0957 10.6527C11.9188 10.6401 11.7412 10.6625 11.5729 10.7186C11.2331 10.8319 10.9522 11.0755 10.792 11.3959C10.6318 11.7162 10.6055 12.0871 10.7188 12.4269C10.832 12.7667 11.0756 13.0476 11.396 13.2078C11.7164 13.368 12.0873 13.3943 12.4271 13.2811C12.7669 13.1678 13.0478 12.9242 13.2079 12.6038C13.3681 12.2835 13.3945 11.9126 13.2812 11.5728C13.1679 11.233 12.9243 10.9521 12.604 10.7919C12.4453 10.7126 12.2726 10.6653 12.0957 10.6527Z" fill="black" fill-opacity="0.9"/>
</svg>
