<svg width="24" height="24" viewBox="0 0 24 24" fill="none" xmlns="http://www.w3.org/2000/svg">
<path fill-rule="evenodd" clip-rule="evenodd" d="M1.63574 15.8281C1.63574 17.0276 2.60814 18 3.80762 18H20.292C21.4915 18 22.4639 17.0276 22.4639 15.8281V4.42188C22.4639 3.2224 21.4915 2.25 20.292 2.25H3.80762C2.60814 2.25 1.63574 3.2224 1.63574 4.42188V15.8281ZM3.80762 16C3.71271 16 3.63574 15.923 3.63574 15.8281V4.42188C3.63574 4.32697 3.71271 4.25 3.80762 4.25H20.292C20.3869 4.25 20.4639 4.32697 20.4639 4.42188V15.8281C20.4639 15.923 20.3869 16 20.292 16H3.80762Z" fill="white"/>
<path fill-rule="evenodd" clip-rule="evenodd" d="M8.78679 21.3964C8.9768 21.6207 9.25586 21.75 9.54981 21.75H14.5498C14.8438 21.75 15.1228 21.6207 15.3128 21.3964C15.5028 21.1721 15.5845 20.8756 15.5362 20.5856L14.9112 16.8356C14.8308 16.3534 14.4137 16 13.9248 16H10.1748C9.68597 16 9.26878 16.3534 9.18842 16.8356L8.56342 20.5856C8.51509 20.8756 8.59679 21.1721 8.78679 21.3964ZM10.7303 19.75L11.0219 18H13.0777L13.3694 19.75H10.7303Z" fill="white"/>
<path fill-rule="evenodd" clip-rule="evenodd" d="M7.2998 20.75C7.2998 21.3023 7.74752 21.75 8.2998 21.75H15.7998C16.3521 21.75 16.7998 21.3023 16.7998 20.75C16.7998 20.1977 16.3521 19.75 15.7998 19.75H8.2998C7.74752 19.75 7.2998 20.1977 7.2998 20.75Z" fill="white"/>
<path fill-rule="evenodd" clip-rule="evenodd" d="M13.2648 12.8127C13.6086 12.9401 13.9946 12.869 14.2706 12.6276L16.4878 10.6875H18.9246C19.4769 10.6875 19.9246 10.2398 19.9246 9.68748C19.9246 9.1352 19.4769 8.68748 18.9246 8.68748H16.1121C15.8699 8.68748 15.6359 8.7754 15.4536 8.93491L13.4014 10.7306L5.5219 7.81223C5.004 7.62042 4.42866 7.88476 4.23684 8.40267C4.04502 8.92057 4.30937 9.49592 4.82727 9.68773L13.2648 12.8127Z" fill="white"/>
</svg>
