<svg width="16" height="16" viewBox="0 0 16 16" fill="none" xmlns="http://www.w3.org/2000/svg">
<path fill-rule="evenodd" clip-rule="evenodd" d="M7.10384 2.09798C7.37495 1.93647 7.68372 1.8501 7.99998 1.8501C8.31624 1.8501 8.625 1.93647 8.89611 2.09798C9.16692 2.2593 9.38956 2.48913 9.54589 2.76183L9.54764 2.76488L14.4167 11.3658C14.5696 11.6459 14.6491 11.9609 14.65 12.2798C14.6508 12.5986 14.5728 12.914 14.4215 13.195C14.2701 13.4761 14.0493 13.7149 13.7775 13.8841C13.5053 14.0535 13.1929 14.1463 12.8716 14.1501L12.8641 14.1501L3.12834 14.1501C2.80703 14.1464 2.49463 14.0535 2.2225 13.8841C1.95069 13.7149 1.72987 13.4761 1.57844 13.195C1.42711 12.914 1.34914 12.5986 1.34998 12.2798C1.35083 11.9609 1.43046 11.6459 1.58333 11.3658L1.58817 11.3569L6.45405 2.76182C6.61038 2.48913 6.83303 2.2593 7.10384 2.09798ZM7.99998 3.1501C7.92144 3.1501 7.84208 3.17139 7.76917 3.21482C7.69632 3.25822 7.63095 3.32326 7.5826 3.40712L7.58188 3.40837L2.7225 11.9922C2.67602 12.0788 2.65025 12.1791 2.64998 12.2832C2.6497 12.3887 2.67565 12.4906 2.72294 12.5784C2.77014 12.666 2.83572 12.7345 2.9096 12.7805C2.98226 12.8257 3.06172 12.8486 3.14053 12.8501H12.8594C12.9382 12.8486 13.0177 12.8257 13.0904 12.7805C13.1642 12.7345 13.2298 12.666 13.277 12.5784C13.3243 12.4906 13.3503 12.3887 13.35 12.2832C13.3497 12.1791 13.3239 12.0788 13.2775 11.9922L8.41807 3.40837L8.41738 3.40717C8.36902 3.32328 8.30365 3.25823 8.23078 3.21482C8.15787 3.17139 8.07851 3.1501 7.99998 3.1501ZM7.99998 5.55839C8.35896 5.55839 8.64998 5.8494 8.64998 6.20839V8.63896C8.64998 8.99794 8.35896 9.28896 7.99998 9.28896C7.64099 9.28896 7.34998 8.99794 7.34998 8.63896V6.20839C7.34998 5.8494 7.64099 5.55839 7.99998 5.55839ZM7.34998 11.0695C7.34998 10.7105 7.64099 10.4195 7.99998 10.4195H8.00572C8.3647 10.4195 8.65572 10.7105 8.65572 11.0695C8.65572 11.4285 8.3647 11.7195 8.00572 11.7195H7.99998C7.64099 11.7195 7.34998 11.4285 7.34998 11.0695Z" fill="black" fill-opacity="0.9"/>
</svg>
