<svg width="16" height="16" viewBox="0 0 16 16" fill="none" xmlns="http://www.w3.org/2000/svg">
<path fill-rule="evenodd" clip-rule="evenodd" d="M5.33331 1.3501C5.69229 1.3501 5.98331 1.64111 5.98331 2.0001V2.68343H10.0166V2.0001C10.0166 1.64111 10.3077 1.3501 10.6666 1.3501C11.0256 1.3501 11.3166 1.64111 11.3166 2.0001V2.68343H12.6666C13.1927 2.68343 13.6971 2.89239 14.0691 3.26434C14.441 3.63628 14.65 4.14075 14.65 4.66676V12.6668C14.65 13.1928 14.441 13.6972 14.0691 14.0692C13.6971 14.4411 13.1927 14.6501 12.6666 14.6501H3.33331C2.8073 14.6501 2.30283 14.4411 1.93088 14.0692C1.55893 13.6972 1.34998 13.1928 1.34998 12.6668V4.66676C1.34998 4.14075 1.55893 3.63628 1.93088 3.26434C2.30283 2.89239 2.8073 2.68343 3.33331 2.68343H4.68331V2.0001C4.68331 1.64111 4.97432 1.3501 5.33331 1.3501ZM4.68331 3.98343H3.33331C3.15208 3.98343 2.97827 4.05542 2.85012 4.18357C2.72197 4.31172 2.64998 4.48553 2.64998 4.66676V12.6668C2.64998 12.848 2.72197 13.0218 2.85012 13.15C2.97827 13.2781 3.15208 13.3501 3.33331 13.3501H12.6666C12.8479 13.3501 13.0217 13.2781 13.1498 13.15C13.278 13.0218 13.35 12.848 13.35 12.6668V4.66676C13.35 4.48553 13.278 4.31172 13.1498 4.18357C13.0217 4.05542 12.8479 3.98343 12.6666 3.98343H11.3166V4.66676C11.3166 5.02575 11.0256 5.31676 10.6666 5.31676C10.3077 5.31676 10.0166 5.02575 10.0166 4.66676V3.98343H5.98331V4.66676C5.98331 5.02575 5.69229 5.31676 5.33331 5.31676C4.97432 5.31676 4.68331 5.02575 4.68331 4.66676V3.98343ZM4.01664 7.33343C4.01664 6.97445 4.30766 6.68343 4.66664 6.68343H11.3333C11.6923 6.68343 11.9833 6.97445 11.9833 7.33343C11.9833 7.69242 11.6923 7.98343 11.3333 7.98343H4.66664C4.30766 7.98343 4.01664 7.69242 4.01664 7.33343Z" fill="black" fill-opacity="0.9"/>
</svg>
