<svg width="16" height="16" viewBox="0 0 16 16" fill="none" xmlns="http://www.w3.org/2000/svg">
<path d="M13.25 3.98999H11.707C11.6081 3.99001 11.5115 4.01938 11.4293 4.07437C11.3471 4.12937 11.283 4.20753 11.2452 4.29897C11.2073 4.39041 11.1974 4.49103 11.2167 4.5881C11.236 4.68518 11.2836 4.77435 11.3535 4.84434L11.8965 5.38789L10.1035 7.18218C10.0082 7.27332 9.88153 7.32418 9.74975 7.32418C9.61797 7.32418 9.49127 7.27332 9.396 7.18218L9.311 7.0966C9.02531 6.82336 8.64538 6.67088 8.25025 6.67088C7.85512 6.67088 7.47519 6.82336 7.1895 7.0966L4.6395 9.64915C4.54555 9.74346 4.49287 9.87127 4.49306 10.0045C4.49325 10.1377 4.54628 10.2653 4.6405 10.3594C4.73472 10.4534 4.8624 10.5061 4.99546 10.5059C5.12851 10.5058 5.25605 10.4527 5.35 10.3584L7.9 7.80581C7.99521 7.71455 8.12193 7.66361 8.25375 7.66361C8.38556 7.66361 8.51229 7.71455 8.6075 7.80581L8.6925 7.89139C8.97831 8.1644 9.35819 8.31672 9.75325 8.31672C10.1483 8.31672 10.5282 8.1644 10.814 7.89139L12.607 6.0966L13.15 6.64014C13.2202 6.70898 13.309 6.75561 13.4055 6.7742C13.502 6.79279 13.6018 6.78251 13.6925 6.74465C13.7831 6.7068 13.8607 6.64304 13.9154 6.56134C13.9701 6.47965 13.9995 6.38363 14 6.28529V4.74074C14 4.54163 13.921 4.35067 13.7803 4.20988C13.6397 4.06909 13.4489 3.98999 13.25 3.98999Z" fill="black" fill-opacity="0.9"/>
<path d="M13.5 12.999H4.5C4.10218 12.999 3.72064 12.8408 3.43934 12.5592C3.15804 12.2776 3 11.8957 3 11.4975V2.5005C3 2.36776 2.94732 2.24046 2.85355 2.14659C2.75979 2.05273 2.63261 2 2.5 2C2.36739 2 2.24021 2.05273 2.14645 2.14659C2.05268 2.24046 2 2.36776 2 2.5005V11.4975C2.00079 12.161 2.26444 12.797 2.73311 13.2662C3.20178 13.7353 3.8372 13.9992 4.5 14H13.5C13.6326 14 13.7598 13.9473 13.8536 13.8534C13.9473 13.7595 14 13.6322 14 13.4995C14 13.3668 13.9473 13.2395 13.8536 13.1456C13.7598 13.0517 13.6326 12.999 13.5 12.999Z" fill="black" fill-opacity="0.9"/>
</svg>
