<svg width="16" height="16" viewBox="0 0 16 16" fill="none" xmlns="http://www.w3.org/2000/svg">
<path d="M15 14.4167C15 14.7375 14.7375 15 14.4167 15H3.91667C2.30667 15 1 13.6933 1 12.0833V1.58333C1 1.2625 1.2625 1 1.58333 1C1.90417 1 2.16667 1.2625 2.16667 1.58333V12.0833C2.16667 13.0458 2.95417 13.8333 3.91667 13.8333H14.4167C14.7375 13.8333 15 14.0958 15 14.4167ZM9.75 7.41667V3.91667C9.75 3.275 10.275 2.75 10.9167 2.75V1.58333C10.9167 1.2625 11.1792 1 11.5 1C11.8208 1 12.0833 1.2625 12.0833 1.58333V2.75C12.725 2.75 13.25 3.275 13.25 3.91667V7.41667C13.25 8.05833 12.725 8.58333 12.0833 8.58333V9.75C12.0833 10.0708 11.8208 10.3333 11.5 10.3333C11.1792 10.3333 10.9167 10.0708 10.9167 9.75V8.58333C10.275 8.58333 9.75 8.05833 9.75 7.41667ZM10.9167 7.41667H12.0833V3.91667H10.9167V7.41667ZM4.5 9.16667V3.91667C4.5 3.275 5.025 2.75 5.66667 2.75V1.58333C5.66667 1.2625 5.92917 1 6.25 1C6.57083 1 6.83333 1.2625 6.83333 1.58333V2.75C7.475 2.75 8 3.275 8 3.91667V9.16667C8 9.80833 7.475 10.3333 6.83333 10.3333V11.5C6.83333 11.8208 6.57083 12.0833 6.25 12.0833C5.92917 12.0833 5.66667 11.8208 5.66667 11.5V10.3333C5.025 10.3333 4.5 9.80833 4.5 9.16667ZM5.66667 9.16667H6.83333V3.91667H5.66667V9.16667Z" fill="black" fill-opacity="0.9"/>
</svg>
