<svg width="16" height="16" viewBox="0 0 16 16" fill="none" xmlns="http://www.w3.org/2000/svg">
<path fill-rule="evenodd" clip-rule="evenodd" d="M7.99998 1.3501C8.35896 1.3501 8.64998 1.64111 8.64998 2.0001V8.43086L10.8737 6.20715C11.1275 5.9533 11.5391 5.9533 11.7929 6.20715C12.0468 6.46099 12.0468 6.87254 11.7929 7.12638L8.4596 10.4597C8.20575 10.7136 7.7942 10.7136 7.54036 10.4597L4.20702 7.12638C3.95318 6.87254 3.95318 6.46099 4.20702 6.20715C4.46086 5.9533 4.87242 5.9533 5.12626 6.20715L7.34998 8.43086V2.0001C7.34998 1.64111 7.64099 1.3501 7.99998 1.3501ZM1.99998 9.3501C2.35896 9.3501 2.64998 9.64111 2.64998 10.0001V12.6668C2.64998 12.848 2.72197 13.0218 2.85012 13.15C2.97827 13.2781 3.15208 13.3501 3.33331 13.3501H12.6666C12.8479 13.3501 13.0217 13.2781 13.1498 13.15C13.278 13.0218 13.35 12.848 13.35 12.6668V10.0001C13.35 9.64111 13.641 9.3501 14 9.3501C14.359 9.3501 14.65 9.64111 14.65 10.0001V12.6668C14.65 13.1928 14.441 13.6972 14.0691 14.0692C13.6971 14.4411 13.1927 14.6501 12.6666 14.6501H3.33331C2.8073 14.6501 2.30283 14.4411 1.93088 14.0692C1.55893 13.6972 1.34998 13.1928 1.34998 12.6668V10.0001C1.34998 9.64111 1.64099 9.3501 1.99998 9.3501Z" fill="black" fill-opacity="0.9"/>
</svg>
