<svg width="24" height="24" viewBox="0 0 24 24" fill="none" xmlns="http://www.w3.org/2000/svg">
<g clip-path="url(#clip0_54916_10328)">
<path d="M14.1988 18.155C14.9164 18.3942 15.6946 18.0229 15.9602 17.3148C16.24 16.5685 15.8444 15.7391 15.0883 15.487L8.97825 13.4655C7.67686 13.0316 5.19281 12.948 3.51562 14.6252" stroke="white" stroke-width="1.5" stroke-miterlimit="10" stroke-linecap="round" stroke-linejoin="round"/>
<path d="M3.51562 14.625H0.703125V21.6562H3.51562V14.625Z" stroke="white" stroke-width="1.5" stroke-miterlimit="10" stroke-linecap="round" stroke-linejoin="round"/>
<path d="M3.51562 20.2498L9.89053 21.6984C10.8443 21.9167 11.8675 22.0425 12.846 22.031C15.3774 22.0014 17.8391 21.1755 19.8992 19.7041L22.7079 17.6233C23.3644 17.1545 23.4926 16.2306 22.9886 15.6006C22.5221 15.0174 21.681 14.9007 21.0733 15.3348L18.0137 17.5949C16.9155 18.3794 15.508 18.591 14.2275 18.1642L9.89077 16.7342" stroke="white" stroke-width="1.5" stroke-miterlimit="10" stroke-linecap="round" stroke-linejoin="round"/>
<path d="M16.5935 9.39399C17.4756 10.0556 19.1617 9.58716 19.1617 8.6482C19.1617 7.09167 16.1816 8.09536 16.1816 6.53883C16.1816 5.59566 17.8705 5.13356 18.7498 5.79305" stroke="white" stroke-width="1.5" stroke-miterlimit="10" stroke-linecap="round" stroke-linejoin="round"/>
<path d="M17.6719 10.5V9.70313" stroke="white" stroke-width="1.5" stroke-miterlimit="10" stroke-linecap="round" stroke-linejoin="round"/>
<path d="M17.6719 5.48438V4.6875" stroke="white" stroke-width="1.5" stroke-miterlimit="10" stroke-linecap="round" stroke-linejoin="round"/>
<path d="M23.2969 7.59375C23.2969 10.7003 20.7785 13.2188 17.6719 13.2188C14.5653 13.2188 12.0469 10.7003 12.0469 7.59375C12.0469 4.48716 14.5653 1.96875 17.6719 1.96875C20.7785 1.96875 23.2969 4.48716 23.2969 7.59375Z" stroke="white" stroke-width="1.5" stroke-miterlimit="10" stroke-linecap="round" stroke-linejoin="round"/>
</g>
<defs>
<clipPath id="clip0_54916_10328">
<rect width="24" height="24" fill="white"/>
</clipPath>
</defs>
</svg>
