<svg width="16" height="16" viewBox="0 0 16 16" fill="none" xmlns="http://www.w3.org/2000/svg">
<path fill-rule="evenodd" clip-rule="evenodd" d="M7.99998 2.6501C6.58107 2.6501 5.22027 3.21376 4.21695 4.21708C3.21363 5.2204 2.64998 6.58119 2.64998 8.0001C2.64998 8.70267 2.78836 9.39836 3.05722 10.0475C3.32608 10.6965 3.72016 11.2863 4.21695 11.7831C4.71375 12.2799 5.30353 12.674 5.95262 12.9429C6.60171 13.2117 7.2974 13.3501 7.99998 13.3501C8.70255 13.3501 9.39824 13.2117 10.0473 12.9429C10.6964 12.674 11.2862 12.2799 11.783 11.7831C12.2798 11.2863 12.6739 10.6965 12.9427 10.0475C13.2116 9.39836 13.35 8.70267 13.35 8.0001C13.35 6.58119 12.7863 5.2204 11.783 4.21708C10.7797 3.21376 9.41888 2.6501 7.99998 2.6501ZM3.29772 3.29784C4.54483 2.05072 6.23629 1.3501 7.99998 1.3501C9.76367 1.3501 11.4551 2.05072 12.7022 3.29784C13.9494 4.54495 14.65 6.23641 14.65 8.0001C14.65 8.87339 14.478 9.73813 14.1438 10.5449C13.8096 11.3518 13.3197 12.0848 12.7022 12.7024C12.0847 13.3199 11.3516 13.8097 10.5448 14.1439C9.738 14.4781 8.87327 14.6501 7.99998 14.6501C7.12669 14.6501 6.26195 14.4781 5.45513 14.1439C4.64832 13.8097 3.91522 13.3199 3.29772 12.7024C2.68021 12.0848 2.19037 11.3518 1.85618 10.5449C1.52198 9.73813 1.34998 8.87339 1.34998 8.0001C1.34998 6.23641 2.0506 4.54495 3.29772 3.29784ZM7.99998 4.68343C8.35896 4.68343 8.64998 4.97445 8.64998 5.33343V8.0001C8.64998 8.35908 8.35896 8.6501 7.99998 8.6501C7.64099 8.6501 7.34998 8.35908 7.34998 8.0001V5.33343C7.34998 4.97445 7.64099 4.68343 7.99998 4.68343ZM7.34998 10.6668C7.34998 10.3078 7.64099 10.0168 7.99998 10.0168H8.00664C8.36563 10.0168 8.65664 10.3078 8.65664 10.6668C8.65664 11.0257 8.36563 11.3168 8.00664 11.3168H7.99998C7.64099 11.3168 7.34998 11.0257 7.34998 10.6668Z" fill="black" fill-opacity="0.9"/>
</svg>
