<svg width="16" height="16" viewBox="0 0 16 16" fill="none" xmlns="http://www.w3.org/2000/svg">
<path fill-rule="evenodd" clip-rule="evenodd" d="M9.33339 3.3166C8.97441 3.3166 8.68339 3.02559 8.68339 2.6666C8.68339 2.30762 8.97441 2.0166 9.33339 2.0166H13.3334C13.6924 2.0166 13.9834 2.30762 13.9834 2.6666V6.6666C13.9834 7.02559 13.6924 7.3166 13.3334 7.3166C12.9744 7.3166 12.6834 7.02559 12.6834 6.6666V4.23584L7.12634 9.79289C6.8725 10.0467 6.46095 10.0467 6.2071 9.79289C5.95326 9.53905 5.95326 9.12749 6.2071 8.87365L11.7642 3.3166H9.33339ZM2.59763 3.93084C2.96958 3.55889 3.47404 3.34993 4.00006 3.34993H6.66672C7.02571 3.34993 7.31672 3.64095 7.31672 3.99993C7.31672 4.35892 7.02571 4.64993 6.66672 4.64993H4.00006C3.81883 4.64993 3.64502 4.72193 3.51687 4.85008C3.38872 4.97823 3.31672 5.15204 3.31672 5.33327V11.9999C3.31672 12.1812 3.38872 12.355 3.51687 12.4831C3.64502 12.6113 3.81883 12.6833 4.00006 12.6833H10.6667C10.848 12.6833 11.0218 12.6113 11.1499 12.4831C11.2781 12.355 11.3501 12.1812 11.3501 11.9999V9.33327C11.3501 8.97428 11.6411 8.68327 12.0001 8.68327C12.359 8.68327 12.6501 8.97428 12.6501 9.33327V11.9999C12.6501 12.5259 12.4411 13.0304 12.0692 13.4024C11.6972 13.7743 11.1927 13.9833 10.6667 13.9833H4.00006C3.47404 13.9833 2.96958 13.7743 2.59763 13.4024C2.22568 13.0304 2.01672 12.5259 2.01672 11.9999V5.33327C2.01672 4.80726 2.22568 4.30279 2.59763 3.93084Z" fill="black" fill-opacity="0.9"/>
</svg>
