<svg width="16" height="16" viewBox="0 0 16 16" fill="none" xmlns="http://www.w3.org/2000/svg">
<path fill-rule="evenodd" clip-rule="evenodd" d="M2.76186 8.0001C2.80983 8.07357 2.86661 8.15787 2.93203 8.25073C3.17944 8.6019 3.54632 9.06954 4.02271 9.53534C4.98363 10.4749 6.32918 11.3501 8.0001 11.3501C9.67101 11.3501 11.0166 10.4749 11.9775 9.53534C12.4539 9.06954 12.8208 8.6019 13.0682 8.25073C13.1336 8.15787 13.1904 8.07357 13.2383 8.0001C13.1904 7.92662 13.1336 7.84232 13.0682 7.74947C12.8208 7.3983 12.4539 6.93065 11.9775 6.46485C11.0166 5.52528 9.67101 4.6501 8.0001 4.6501C6.32918 4.6501 4.98363 5.52528 4.02271 6.46485C3.54632 6.93065 3.17944 7.3983 2.93203 7.74947C2.86661 7.84232 2.80983 7.92662 2.76186 8.0001ZM14.0001 8.0001C14.5707 7.68884 14.5706 7.68862 14.5705 7.68839L14.5694 7.68647L14.5673 7.68263L14.5606 7.67066C14.5551 7.66081 14.5474 7.64724 14.5376 7.63021C14.5179 7.59614 14.4897 7.54817 14.4529 7.48826C14.3794 7.36853 14.2718 7.20068 14.1309 7.00073C13.8499 6.6019 13.4327 6.06954 12.8863 5.53534C11.8018 4.47491 10.1474 3.3501 8.0001 3.3501C5.85283 3.3501 4.19838 4.47491 3.11385 5.53534C2.56751 6.06954 2.1503 6.6019 1.8693 7.00073C1.72843 7.20068 1.62077 7.36853 1.5473 7.48826C1.51054 7.54817 1.48226 7.59614 1.4626 7.63021C1.45276 7.64724 1.44508 7.66081 1.43955 7.67066L1.43288 7.68263L1.43077 7.68647L1.43001 7.68784C1.42989 7.68808 1.42947 7.68884 2.0001 8.0001L1.42947 7.68884C1.32364 7.88285 1.32364 8.11734 1.42947 8.31135L2.0001 8.0001C1.42947 8.31135 1.42934 8.31112 1.42947 8.31135L1.43001 8.31236L1.43077 8.31373L1.43288 8.31757L1.43955 8.32953C1.44508 8.33938 1.45276 8.35295 1.4626 8.36999C1.48226 8.40405 1.51054 8.45203 1.5473 8.51193C1.62077 8.63166 1.72843 8.79951 1.8693 8.99947C2.1503 9.3983 2.56751 9.93065 3.11385 10.4649C4.19838 11.5253 5.85283 12.6501 8.0001 12.6501C10.1474 12.6501 11.8018 11.5253 12.8863 10.4649C13.4327 9.93065 13.8499 9.3983 14.1309 8.99947C14.2718 8.79951 14.3794 8.63166 14.4529 8.51193C14.4897 8.45203 14.5179 8.40405 14.5376 8.36999C14.5474 8.35295 14.5551 8.33938 14.5606 8.32953L14.5673 8.31757L14.5694 8.31373L14.5702 8.31236C14.5703 8.31212 14.5707 8.31135 14.0001 8.0001ZM14.0001 8.0001L14.5707 8.31135C14.6766 8.11734 14.6763 7.8824 14.5705 7.68839L14.0001 8.0001Z" fill="black" fill-opacity="0.9"/>
<path fill-rule="evenodd" clip-rule="evenodd" d="M8.0001 6.6501C7.25451 6.6501 6.6501 7.25451 6.6501 8.0001C6.6501 8.74568 7.25451 9.3501 8.0001 9.3501C8.74568 9.3501 9.3501 8.74568 9.3501 8.0001C9.3501 7.25451 8.74568 6.6501 8.0001 6.6501ZM5.3501 8.0001C5.3501 6.53654 6.53654 5.3501 8.0001 5.3501C9.46365 5.3501 10.6501 6.53654 10.6501 8.0001C10.6501 9.46365 9.46365 10.6501 8.0001 10.6501C6.53654 10.6501 5.3501 9.46365 5.3501 8.0001Z" fill="black" fill-opacity="0.9"/>
</svg>
