<svg width="16" height="16" viewBox="0 0 16 16" fill="none" xmlns="http://www.w3.org/2000/svg">
<path d="M6.54202 5.375C6.54202 4.56942 7.19479 3.91667 8.0004 3.91667C8.80601 3.91667 9.45878 4.56942 9.45878 5.375C9.45878 6.18058 8.80601 6.83333 8.0004 6.83333C7.19479 6.83333 6.54202 6.18058 6.54202 5.375ZM10.3338 9.16667V10.9167C10.3338 11.4317 10.1057 11.8908 9.75046 12.2117V14.4167C9.75046 14.7392 9.4897 15 9.16711 15C8.84451 15 8.58375 14.7392 8.58375 14.4167V12.6667H7.41705V14.4167C7.41705 14.7392 7.15571 15 6.83369 15C6.51168 15 6.25034 14.7392 6.25034 14.4167V12.2117C5.89508 11.8914 5.66699 11.4317 5.66699 10.9167V9.16667C5.66699 8.20183 6.45218 7.41667 7.41705 7.41667H8.58375C9.54862 7.41667 10.3338 8.20183 10.3338 9.16667ZM8.58375 11.5C8.90576 11.5 9.16711 11.2387 9.16711 10.9167V9.16667C9.16711 8.84467 8.90576 8.58333 8.58375 8.58333H7.41705C7.09562 8.58333 6.83369 8.84467 6.83369 9.16667V10.9167C6.83369 11.2387 7.09562 11.5 7.41705 11.5H8.58375ZM12.0839 3.91667C12.8895 3.91667 13.5423 3.26392 13.5423 2.45833C13.5423 1.65275 12.8895 1 12.0839 1C11.2783 1 10.6255 1.65275 10.6255 2.45833C10.6255 3.26392 11.2783 3.91667 12.0839 3.91667ZM14.9872 10.6997L14.4762 6.61167C14.3263 5.40825 13.2978 4.5 12.0839 4.5C11.5227 4.5 10.9767 4.69717 10.5444 5.05533C10.2965 5.26125 10.2626 5.62875 10.468 5.87667C10.6727 6.12342 11.0408 6.159 11.2893 5.95308C11.5122 5.76875 11.7939 5.66667 12.0833 5.66667C12.7092 5.66667 13.2401 6.13508 13.3177 6.75633L13.8287 10.8443C13.8497 11.0129 13.7995 11.1751 13.6875 11.3028C13.5755 11.43 13.4197 11.5 13.25 11.5H11.4999C11.1773 11.5 10.9166 11.7607 10.9166 12.0833C10.9166 12.4059 11.1773 12.6667 11.4999 12.6667H12.6666V14.4167C12.6666 14.7392 12.9274 15 13.25 15C13.5726 15 13.8333 14.7392 13.8333 14.4167V12.5564C14.1099 12.4578 14.3636 12.2992 14.562 12.0746C14.8939 11.6978 15.0491 11.1972 14.9872 10.6997ZM3.91693 3.91667C4.72254 3.91667 5.37531 3.26392 5.37531 2.45833C5.37531 1.65275 4.72254 1 3.91693 1C3.11132 1 2.45855 1.65275 2.45855 2.45833C2.45855 3.26392 3.11132 3.91667 3.91693 3.91667ZM3.91693 4.5C2.70356 4.5 1.67511 5.40825 1.5246 6.61167L1.01358 10.6997C0.951165 11.1978 1.10575 11.6983 1.43826 12.0746C1.6366 12.2992 1.89036 12.4578 2.16687 12.5564V14.4167C2.16687 14.7392 2.42821 15 2.75023 15C3.07224 15 3.33358 14.7392 3.33358 14.4167V12.6667H4.50028C4.82229 12.6667 5.08364 12.4059 5.08364 12.0833C5.08364 11.7607 4.82229 11.5 4.50028 11.5H2.75023C2.58047 11.5 2.4253 11.43 2.31271 11.3028C2.20071 11.1751 2.14996 11.0129 2.17096 10.8443L2.68197 6.75633C2.75956 6.13508 3.29041 5.66667 3.91635 5.66667C4.20569 5.66667 4.48745 5.76875 4.71029 5.95308C4.9588 6.15958 5.32631 6.12517 5.53165 5.87667C5.73758 5.62875 5.70316 5.26067 5.45523 5.05533C5.02355 4.69717 4.47695 4.5 3.91576 4.5H3.91693Z" fill="black" fill-opacity="0.9"/>
</svg>
