<svg width="16" height="16" viewBox="0 0 16 16" fill="none" xmlns="http://www.w3.org/2000/svg">
<path d="M3.5252 7.07177C3.67784 6.29274 4.02129 5.55837 4.53098 4.93731C5.23955 4.07391 6.22557 3.48292 7.32103 3.26502C8.4165 3.04711 9.55362 3.21579 10.5387 3.74231C11.5237 4.26882 12.2957 5.12059 12.7231 6.1525C13.1506 7.1844 13.207 8.33259 12.8827 9.40141C12.5585 10.4702 11.8737 11.3936 10.945 12.0141C10.0163 12.6346 8.90122 12.914 7.78968 12.8045C6.99011 12.7257 6.22798 12.4493 5.56919 12.0064C5.4731 11.9418 5.37921 11.8736 5.28773 11.8021C5.25715 11.7781 5.22494 11.757 5.19152 11.7388C4.94626 11.6051 4.63614 11.6267 4.4347 11.8282C4.20581 12.0571 4.20416 12.4307 4.45429 12.6362C4.49097 12.6663 4.52798 12.696 4.56531 12.7252C4.68217 12.8167 4.80219 12.9036 4.92509 12.9859C5.74156 13.5325 6.68509 13.8736 7.67478 13.9711C9.05622 14.1071 10.4421 13.76 11.5963 12.9888C12.7505 12.2176 13.6016 11.0701 14.0045 9.7417C14.4075 8.41334 14.3374 6.98636 13.8061 5.7039C13.2749 4.42144 12.3155 3.36284 11.0913 2.70848C9.86703 2.05412 8.4538 1.84449 7.09234 2.1153C5.73089 2.38611 4.50545 3.12061 3.62483 4.19364C3.00697 4.9465 2.58568 5.83333 2.38928 6.77496L2.30607 6.63858C2.11432 6.32426 1.70407 6.2249 1.38976 6.41665C1.07544 6.60841 0.976081 7.01865 1.16783 7.33297L2.23026 9.07448C2.42201 9.38879 2.83226 9.48815 3.14657 9.2964C3.1938 9.26759 3.23617 9.23385 3.27343 9.19624L3.27789 9.19272L4.87495 7.9223C5.16309 7.69308 5.21086 7.27369 4.98165 6.98555C4.75244 6.6974 4.33304 6.64963 4.0449 6.87884L3.48236 7.32633C3.49438 7.24101 3.50867 7.15613 3.5252 7.07177Z" fill="black" fill-opacity="0.9"/>
<path d="M8.32931 5.60026C8.32931 5.23207 8.03083 4.93359 7.66264 4.93359C7.29445 4.93359 6.99597 5.23207 6.99597 5.60026V8.60025C6.99597 8.96844 7.29445 9.26692 7.66264 9.26692L10.0626 9.26693C10.4308 9.26693 10.7293 8.96845 10.7293 8.60026C10.7293 8.23207 10.4308 7.93359 10.0626 7.93359H8.32931V5.60026Z" fill="black" fill-opacity="0.9"/>
</svg>
