<svg width="16" height="16" viewBox="0 0 16 16" fill="none" xmlns="http://www.w3.org/2000/svg">
<path fill-rule="evenodd" clip-rule="evenodd" d="M8.00006 2.58479C7.3597 2.58479 6.74557 2.83917 6.29277 3.29197C5.83996 3.74477 5.58558 4.3589 5.58558 4.99926V6.81387H10.4145V4.99926C10.4145 4.3589 10.1602 3.74477 9.70735 3.29197C9.25455 2.83917 8.64042 2.58479 8.00006 2.58479ZM11.5843 6.81387V4.99926C11.5843 4.04867 11.2067 3.13701 10.5345 2.46483C9.86231 1.79266 8.95065 1.41504 8.00006 1.41504C7.04946 1.41504 6.1378 1.79266 5.46563 2.46483C4.79346 3.13701 4.41584 4.04867 4.41584 4.99926V6.81387H3.80097C2.81536 6.81387 2.01636 7.61287 2.01636 8.59848V12.7976C2.01636 13.7832 2.81536 14.5822 3.80097 14.5822H12.1991C13.1848 14.5822 13.9838 13.7832 13.9838 12.7976V8.59848C13.9838 7.61287 13.1848 6.81387 12.1991 6.81387H11.5843ZM3.80097 7.98361C3.46139 7.98361 3.1861 8.2589 3.1861 8.59848V12.7976C3.1861 13.1372 3.46139 13.4124 3.80097 13.4124H12.1991C12.5387 13.4124 12.814 13.1372 12.814 12.7976V8.59848C12.814 8.2589 12.5387 7.98361 12.1991 7.98361H3.80097Z" fill="black" fill-opacity="0.9"/>
</svg>
