<svg width="24" height="24" viewBox="0 0 24 24" fill="none" xmlns="http://www.w3.org/2000/svg">
<path fill-rule="evenodd" clip-rule="evenodd" d="M2.89636 4.89626C3.45428 4.33834 4.21099 4.0249 5.00001 4.0249H19C19.789 4.0249 20.5457 4.33834 21.1036 4.89626C21.6616 5.45418 21.975 6.21088 21.975 6.9999V7.98477C21.9751 7.99426 21.9751 8.00376 21.975 8.01325V16.9999C21.975 17.7889 21.6616 18.5456 21.1036 19.1035C20.5457 19.6615 19.789 19.9749 19 19.9749H5.00001C4.21099 19.9749 3.45428 19.6615 2.89636 19.1035C2.33844 18.5456 2.02501 17.7889 2.02501 16.9999V8.01323C2.02487 8.00375 2.02487 7.99427 2.02501 7.98478V6.9999C2.02501 6.21088 2.33844 5.45418 2.89636 4.89626ZM3.97501 9.82171V16.9999C3.97501 17.2717 4.083 17.5325 4.27522 17.7247C4.46745 17.9169 4.72816 18.0249 5.00001 18.0249H19C19.2719 18.0249 19.5326 17.9169 19.7248 17.7247C19.917 17.5325 20.025 17.2717 20.025 16.9999V9.82171L13.6511 14.071C13.1623 14.397 12.5876 14.5712 12 14.5712C11.4124 14.5712 10.838 14.3972 10.3492 14.0712L3.97501 9.82171ZM20.025 7.4781L12.5692 12.4487C12.4007 12.561 12.2025 12.6212 12 12.6212C11.7975 12.6212 11.5996 12.5612 11.4311 12.4488L3.97501 7.4781V6.9999C3.97501 6.72806 4.083 6.46734 4.27522 6.27512C4.46745 6.08289 4.72816 5.9749 5.00001 5.9749H19C19.2719 5.9749 19.5326 6.08289 19.7248 6.27512C19.917 6.46734 20.025 6.72806 20.025 6.9999V7.4781Z" fill="white"/>
</svg>
