<svg width="16" height="16" viewBox="0 0 16 16" fill="none" xmlns="http://www.w3.org/2000/svg">
<path fill-rule="evenodd" clip-rule="evenodd" d="M8.0001 2.3501C8.35908 2.3501 8.6501 2.64111 8.6501 3.0001V7.3501H13.0001C13.3591 7.3501 13.6501 7.64111 13.6501 8.0001C13.6501 8.35908 13.3591 8.6501 13.0001 8.6501H8.6501V13.0001C8.6501 13.3591 8.35908 13.6501 8.0001 13.6501C7.64111 13.6501 7.3501 13.3591 7.3501 13.0001V8.6501H3.0001C2.64111 8.6501 2.3501 8.35908 2.3501 8.0001C2.3501 7.64111 2.64111 7.3501 3.0001 7.3501H7.3501V3.0001C7.3501 2.64111 7.64111 2.3501 8.0001 2.3501Z" fill="black" fill-opacity="0.9"/>
</svg>
