<svg width="16" height="16" viewBox="0 0 16 16" fill="none" xmlns="http://www.w3.org/2000/svg">
<path fill-rule="evenodd" clip-rule="evenodd" d="M2.40237 2.40224C2.64929 2.15532 2.98419 2.0166 3.33339 2.0166H4.66672C5.01593 2.0166 5.35082 2.15532 5.59775 2.40224C5.84467 2.64917 5.98339 2.98407 5.98339 3.33327V4.6666C5.98339 5.0158 5.84467 5.3507 5.59775 5.59763C5.35082 5.84455 5.01593 5.98327 4.66672 5.98327H3.33339C2.98419 5.98327 2.64929 5.84455 2.40237 5.59763C2.15544 5.3507 2.01672 5.0158 2.01672 4.6666V3.33327C2.01672 2.98407 2.15544 2.64917 2.40237 2.40224ZM3.33339 3.3166C3.32897 3.3166 3.32473 3.31836 3.32161 3.32148C3.31848 3.32461 3.31672 3.32885 3.31672 3.33327V4.6666C3.31672 4.67102 3.31848 4.67526 3.32161 4.67839C3.32473 4.68151 3.32897 4.68327 3.33339 4.68327H4.66672C4.67114 4.68327 4.67538 4.68151 4.67851 4.67839C4.68163 4.67526 4.68339 4.67102 4.68339 4.6666V3.33327C4.68339 3.32885 4.68163 3.32461 4.67851 3.32148C4.67538 3.31836 4.67114 3.3166 4.66672 3.3166H3.33339ZM8.00006 2.0166C8.35904 2.0166 8.65006 2.30762 8.65006 2.6666V3.33327C8.65006 3.69225 8.35904 3.98327 8.00006 3.98327C7.64107 3.98327 7.35006 3.69225 7.35006 3.33327V2.6666C7.35006 2.30762 7.64107 2.0166 8.00006 2.0166ZM10.4024 2.40224C10.6493 2.15532 10.9842 2.0166 11.3334 2.0166H12.6667C13.0159 2.0166 13.3508 2.15532 13.5977 2.40224C13.8447 2.64917 13.9834 2.98407 13.9834 3.33327V4.6666C13.9834 5.0158 13.8447 5.3507 13.5977 5.59763C13.3508 5.84455 13.0159 5.98327 12.6667 5.98327H11.3334C10.9842 5.98327 10.6493 5.84455 10.4024 5.59763C10.1554 5.3507 10.0167 5.0158 10.0167 4.6666V3.33327C10.0167 2.98407 10.1554 2.64917 10.4024 2.40224ZM11.3334 3.3166C11.329 3.3166 11.3247 3.31836 11.3216 3.32148C11.3185 3.32461 11.3167 3.32885 11.3167 3.33327V4.6666C11.3167 4.67102 11.3185 4.67526 11.3216 4.67839C11.3247 4.68151 11.329 4.68327 11.3334 4.68327H12.6667C12.6711 4.68327 12.6754 4.68151 12.6785 4.67839C12.6816 4.67526 12.6834 4.67102 12.6834 4.6666V3.33327C12.6834 3.32885 12.6816 3.32461 12.6785 3.32148C12.6754 3.31836 12.6711 3.3166 12.6667 3.3166H11.3334ZM8.00006 5.34994C8.35904 5.34994 8.65006 5.64095 8.65006 5.99994V7.34994H10.6734C11.0324 7.34994 11.3234 7.64095 11.3234 7.99994C11.3234 8.35892 11.0324 8.64994 10.6734 8.64994H8.00006C7.64107 8.64994 7.35006 8.35892 7.35006 7.99994V5.99994C7.35006 5.64095 7.64107 5.34994 8.00006 5.34994ZM2.01672 7.99994C2.01672 7.64095 2.30774 7.34994 2.66672 7.34994H5.33339C5.69238 7.34994 5.98339 7.64095 5.98339 7.99994C5.98339 8.35892 5.69238 8.64994 5.33339 8.64994H2.66672C2.30774 8.64994 2.01672 8.35892 2.01672 7.99994ZM12.6834 7.99994C12.6834 7.64095 12.9744 7.34994 13.3334 7.34994H13.3401C13.699 7.34994 13.9901 7.64095 13.9901 7.99994C13.9901 8.35892 13.699 8.64994 13.3401 8.64994H13.3334C12.9744 8.64994 12.6834 8.35892 12.6834 7.99994ZM2.40237 10.4022C2.64929 10.1553 2.98419 10.0166 3.33339 10.0166H4.66672C5.01592 10.0166 5.35082 10.1553 5.59775 10.4022C5.84467 10.6492 5.98339 10.9841 5.98339 11.3333V12.6666C5.98339 13.0158 5.84467 13.3507 5.59775 13.5976C5.35082 13.8445 5.01592 13.9833 4.66672 13.9833H3.33339C2.98419 13.9833 2.64929 13.8445 2.40237 13.5976C2.15544 13.3507 2.01672 13.0158 2.01672 12.6666V11.3333C2.01672 10.9841 2.15544 10.6492 2.40237 10.4022ZM3.33339 11.3166C3.32897 11.3166 3.32473 11.3184 3.32161 11.3215C3.31848 11.3246 3.31672 11.3288 3.31672 11.3333V12.6666C3.31672 12.671 3.31848 12.6753 3.32161 12.6784C3.32473 12.6815 3.32897 12.6833 3.33339 12.6833H4.66672C4.67114 12.6833 4.67538 12.6815 4.67851 12.6784C4.68163 12.6753 4.68339 12.671 4.68339 12.6666V11.3333C4.68339 11.3288 4.68163 11.3246 4.67851 11.3215C4.67538 11.3184 4.67114 11.3166 4.66672 11.3166H3.33339ZM7.35006 10.6666C7.35006 10.3076 7.64107 10.0166 8.00006 10.0166H9.33339C9.69238 10.0166 9.98339 10.3076 9.98339 10.6666C9.98339 11.0256 9.69238 11.3166 9.33339 11.3166H8.65006V13.3333C8.65006 13.6923 8.35904 13.9833 8.00006 13.9833C7.64107 13.9833 7.35006 13.6923 7.35006 13.3333V10.6666ZM11.3501 10.6666C11.3501 10.3076 11.6411 10.0166 12.0001 10.0166H13.3334C13.6924 10.0166 13.9834 10.3076 13.9834 10.6666C13.9834 11.0256 13.6924 11.3166 13.3334 11.3166H12.0001C11.6411 11.3166 11.3501 11.0256 11.3501 10.6666ZM10.0167 13.3333C10.0167 12.9743 10.3077 12.6833 10.6667 12.6833H13.3334C13.6924 12.6833 13.9834 12.9743 13.9834 13.3333C13.9834 13.6923 13.6924 13.9833 13.3334 13.9833H10.6667C10.3077 13.9833 10.0167 13.6923 10.0167 13.3333Z" fill="black" fill-opacity="0.9"/>
</svg>
