<svg width="16" height="16" viewBox="0 0 16 16" fill="none" xmlns="http://www.w3.org/2000/svg">
<path fill-rule="evenodd" clip-rule="evenodd" d="M7.33331 2.6501C4.74678 2.6501 2.64998 4.7469 2.64998 7.33343C2.64998 9.91997 4.74678 12.0168 7.33331 12.0168C9.91984 12.0168 12.0166 9.91997 12.0166 7.33343C12.0166 4.7469 9.91984 2.6501 7.33331 2.6501ZM1.34998 7.33343C1.34998 4.02893 4.02881 1.3501 7.33331 1.3501C10.6378 1.3501 13.3166 4.02893 13.3166 7.33343C13.3166 10.6379 10.6378 13.3168 7.33331 13.3168C4.02881 13.3168 1.34998 10.6379 1.34998 7.33343Z" fill="black" fill-opacity="0.9"/>
<path fill-rule="evenodd" clip-rule="evenodd" d="M10.6404 10.6405C10.8942 10.3866 11.3058 10.3866 11.5596 10.6405L14.4596 13.5405C14.7134 13.7943 14.7134 14.2059 14.4596 14.4597C14.2058 14.7136 13.7942 14.7136 13.5404 14.4597L10.6404 11.5597C10.3865 11.3059 10.3865 10.8943 10.6404 10.6405Z" fill="black" fill-opacity="0.9"/>
</svg>
