<svg width="16" height="16" viewBox="0 0 16 16" fill="none" xmlns="http://www.w3.org/2000/svg">
<g clip-path="url(#clip0_54930_39291)">
<path fill-rule="evenodd" clip-rule="evenodd" d="M8.00002 1.98311C4.6771 1.98311 1.98335 4.67686 1.98335 7.99977C1.98335 11.3227 4.6771 14.0164 8.00002 14.0164C11.3229 14.0164 14.0167 11.3227 14.0167 7.99977C14.0167 4.67686 11.3229 1.98311 8.00002 1.98311ZM0.68335 7.99977C0.68335 3.95889 3.95913 0.683105 8.00002 0.683105C12.0409 0.683105 15.3167 3.95889 15.3167 7.99977C15.3167 12.0407 12.0409 15.3164 8.00002 15.3164C3.95913 15.3164 0.68335 12.0407 0.68335 7.99977Z" fill="black" fill-opacity="0.9"/>
<path fill-rule="evenodd" clip-rule="evenodd" d="M5.85137 8.94047C5.63546 8.65556 5.22966 8.59837 4.94335 8.81311C4.65616 9.0285 4.59796 9.43592 4.81335 9.72311L5.33335 9.33311C4.81335 9.72311 4.81335 9.72311 4.81335 9.72311L4.81401 9.72398L4.81476 9.72498L4.81656 9.72735L4.8213 9.73354L4.83536 9.75154C4.84676 9.76594 4.86223 9.78507 4.88169 9.80826C4.92057 9.85459 4.97566 9.91741 5.04635 9.99118C5.18719 10.1381 5.39306 10.3318 5.65937 10.5255C6.18949 10.911 6.98759 11.3164 8.00002 11.3164C9.01244 11.3164 9.81054 10.911 10.3407 10.5255C10.607 10.3318 10.8128 10.1381 10.9537 9.99118C11.0244 9.91741 11.0795 9.85459 11.1183 9.80826C11.1378 9.78507 11.1533 9.76594 11.1647 9.75154L11.1787 9.73354L11.1835 9.72735L11.1853 9.72498L11.186 9.72398C11.186 9.72398 11.1867 9.72311 10.6667 9.33311L11.1867 9.72311C11.4021 9.43592 11.3439 9.0285 11.0567 8.81311C10.7704 8.59837 10.3646 8.65556 10.1487 8.94048L10.1454 8.94462C10.1414 8.94975 10.1337 8.95926 10.1226 8.97253C10.1003 8.99912 10.0642 9.04046 10.0151 9.0917C9.91636 9.19473 9.76806 9.33444 9.57604 9.47409C9.18949 9.75522 8.65425 10.0164 8.00002 10.0164C7.34578 10.0164 6.81054 9.75522 6.42399 9.47409C6.23197 9.33444 6.08367 9.19473 5.98493 9.0917C5.93583 9.04046 5.89977 8.99912 5.87746 8.97253C5.86632 8.95926 5.85868 8.94975 5.85462 8.94462L5.85137 8.94047Z" fill="black" fill-opacity="0.9"/>
<path fill-rule="evenodd" clip-rule="evenodd" d="M5.35002 5.99977C5.35002 5.64079 5.64103 5.34977 6.00002 5.34977H6.00668C6.36567 5.34977 6.65668 5.64079 6.65668 5.99977C6.65668 6.35876 6.36567 6.64977 6.00668 6.64977H6.00002C5.64103 6.64977 5.35002 6.35876 5.35002 5.99977Z" fill="black" fill-opacity="0.9"/>
<path fill-rule="evenodd" clip-rule="evenodd" d="M9.35002 5.99977C9.35002 5.64079 9.64103 5.34977 10 5.34977H10.0067C10.3657 5.34977 10.6567 5.64079 10.6567 5.99977C10.6567 6.35876 10.3657 6.64977 10.0067 6.64977H10C9.64103 6.64977 9.35002 6.35876 9.35002 5.99977Z" fill="black" fill-opacity="0.9"/>
</g>
<defs>
<clipPath id="clip0_54930_39291">
<rect width="16" height="16" fill="white"/>
</clipPath>
</defs>
</svg>
