<svg width="16" height="16" viewBox="0 0 16 16" fill="none" xmlns="http://www.w3.org/2000/svg">
<path fill-rule="evenodd" clip-rule="evenodd" d="M2.98815 10.3215C3.61015 9.69953 4.45376 9.3501 5.33339 9.3501H10.6667C11.5464 9.3501 12.39 9.69953 13.012 10.3215C13.634 10.9435 13.9834 11.7871 13.9834 12.6668V14.0001C13.9834 14.3591 13.6924 14.6501 13.3334 14.6501C12.9744 14.6501 12.6834 14.3591 12.6834 14.0001V12.6668C12.6834 12.1319 12.4709 11.619 12.0927 11.2408C11.7145 10.8626 11.2016 10.6501 10.6667 10.6501H5.33339C4.79854 10.6501 4.28559 10.8626 3.90739 11.2408C3.52919 11.619 3.31672 12.1319 3.31672 12.6668V14.0001C3.31672 14.3591 3.02571 14.6501 2.66672 14.6501C2.30774 14.6501 2.01672 14.3591 2.01672 14.0001V12.6668C2.01672 11.7871 2.36616 10.9435 2.98815 10.3215Z" fill="black" fill-opacity="0.9"/>
<path fill-rule="evenodd" clip-rule="evenodd" d="M8.00006 2.6501C6.88628 2.6501 5.98339 3.55299 5.98339 4.66676C5.98339 5.78054 6.88628 6.68343 8.00006 6.68343C9.11383 6.68343 10.0167 5.78054 10.0167 4.66676C10.0167 3.55299 9.11383 2.6501 8.00006 2.6501ZM4.68339 4.66676C4.68339 2.83502 6.16831 1.3501 8.00006 1.3501C9.8318 1.3501 11.3167 2.83502 11.3167 4.66676C11.3167 6.49851 9.8318 7.98343 8.00006 7.98343C6.16831 7.98343 4.68339 6.49851 4.68339 4.66676Z" fill="black" fill-opacity="0.9"/>
</svg>
